<?xml version="1.0" encoding="UTF-8"?>
<svg width="193px" height="100px" viewBox="0 0 193 100" version="1.1" xmlns="http://www.w3.org/2000/svg" xmlns:xlink="http://www.w3.org/1999/xlink">
    <title>logo﹖v=2</title>
    <g id="logo﹖v=2" stroke="none" stroke-width="1" fill="none" fill-rule="evenodd">
        <g transform="translate(0.198200, 72.210121)" fill="#FFFFFF" fill-rule="nonzero" id="Shape">
            <path d="M0,26.772 L0,0.361 L15.9398,0.361 L15.9398,3.198 L3.1982,3.198 L3.1982,12.122 L15.1138,12.122 L15.1138,14.959 L3.1982,14.959 L3.1982,23.935 L16.1458,23.935 L16.1458,26.772 L0,26.772 Z M23.2518,0.361 L30.0608,11.349 L30.2668,11.349 L37.0758,0.361 L40.8418,0.361 L32.5368,13.567 L40.8418,26.772 L37.0758,26.772 L30.2668,15.991 L30.0608,15.991 L23.2518,26.772 L19.4858,26.772 L27.9968,13.567 L19.4858,0.361 L23.2518,0.361 Z M65.8308,8.615 L62.6328,8.615 C62.4438,7.695 62.1128,6.887 61.6398,6.19 C61.1748,5.494 60.6078,4.909 59.9368,4.436 C59.2748,3.955 58.5398,3.594 57.7318,3.353 C56.9238,3.112 56.0818,2.992 55.2048,2.992 C53.6058,2.992 52.1568,3.396 50.8588,4.204 C49.5688,5.012 48.5418,6.203 47.7768,7.776 C47.0198,9.35 46.6418,11.28 46.6418,13.567 C46.6418,15.854 47.0198,17.784 47.7768,19.357 C48.5418,20.93 49.5688,22.121 50.8588,22.929 C52.1568,23.737 53.6058,24.141 55.2048,24.141 C56.0818,24.141 56.9238,24.021 57.7318,23.78 C58.5398,23.54 59.2748,23.183 59.9368,22.71 C60.6078,22.228 61.1748,21.64 61.6398,20.943 C62.1128,20.238 62.4438,19.43 62.6328,18.519 L65.8308,18.519 C65.5898,19.869 65.1518,21.076 64.5158,22.143 C63.8788,23.209 63.0878,24.116 62.1428,24.864 C61.1968,25.603 60.1348,26.166 58.9568,26.553 C57.7878,26.94 56.5368,27.133 55.2048,27.133 C52.9518,27.133 50.9488,26.583 49.1948,25.483 C47.4408,24.382 46.0608,22.817 45.0548,20.788 C44.0498,18.759 43.5468,16.352 43.5468,13.567 C43.5468,10.781 44.0498,8.374 45.0548,6.345 C46.0608,4.316 47.4408,2.751 49.1948,1.651 C50.9488,0.55 52.9518,0 55.2048,0 C56.5368,0 57.7878,0.194 58.9568,0.58 C60.1348,0.967 61.1968,1.535 62.1428,2.283 C63.0878,3.022 63.8788,3.925 64.5158,4.991 C65.1518,6.048 65.5898,7.256 65.8308,8.615 Z M70.9988,26.772 L70.9988,0.361 L74.1968,0.361 L74.1968,12.122 L88.2798,12.122 L88.2798,0.361 L91.4778,0.361 L91.4778,26.772 L88.2798,26.772 L88.2798,14.959 L74.1968,14.959 L74.1968,26.772 L70.9988,26.772 Z M98.9638,26.772 L95.6108,26.772 L105.3088,0.361 L108.6098,0.361 L118.3078,26.772 L114.9548,26.772 L107.0628,4.54 L106.8558,4.54 L98.9638,26.772 Z M100.2018,16.455 L113.7168,16.455 L113.7168,19.293 L100.2018,19.293 L100.2018,16.455 Z M143.3648,0.361 L143.3648,26.772 L140.2698,26.772 L125.8778,6.035 L125.6198,6.035 L125.6198,26.772 L122.4218,26.772 L122.4218,0.361 L125.5168,0.361 L139.9598,21.15 L140.2178,21.15 L140.2178,0.361 L143.3648,0.361 Z M167.8188,8.615 C167.5348,7.746 167.1608,6.968 166.6968,6.28 C166.2408,5.584 165.6948,4.991 165.0588,4.501 C164.4308,4.011 163.7178,3.637 162.9178,3.379 C162.1188,3.121 161.2418,2.992 160.2868,2.992 C158.7228,2.992 157.2998,3.396 156.0188,4.204 C154.7378,5.012 153.7188,6.203 152.9628,7.776 C152.2058,9.35 151.8278,11.28 151.8278,13.567 C151.8278,15.854 152.2098,17.784 152.9748,19.357 C153.7408,20.93 154.7768,22.121 156.0828,22.929 C157.3898,23.737 158.8598,24.141 160.4938,24.141 C162.0068,24.141 163.3388,23.819 164.4918,23.174 C165.6518,22.521 166.5548,21.601 167.1998,20.414 C167.8528,19.219 168.1798,17.814 168.1798,16.197 L169.1598,16.404 L161.2158,16.404 L161.2158,13.567 L171.2748,13.567 L171.2748,16.404 C171.2748,18.579 170.8108,20.47 169.8818,22.078 C168.9618,23.686 167.6898,24.932 166.0648,25.818 C164.4488,26.695 162.5918,27.133 160.4938,27.133 C158.1548,27.133 156.1008,26.583 154.3298,25.483 C152.5668,24.382 151.1908,22.817 150.2028,20.788 C149.2228,18.759 148.7328,16.352 148.7328,13.567 C148.7328,11.478 149.0118,9.599 149.5708,7.931 C150.1378,6.255 150.9378,4.828 151.9698,3.65 C153.0008,2.472 154.2218,1.569 155.6318,0.942 C157.0418,0.314 158.5938,0 160.2868,0 C161.6798,0 162.9778,0.211 164.1818,0.632 C165.3938,1.045 166.4728,1.634 167.4188,2.399 C168.3728,3.155 169.1678,4.062 169.8048,5.12 C170.4408,6.169 170.8788,7.334 171.1198,8.615 L167.8188,8.615 Z M176.7518,26.772 L176.7518,0.361 L192.6918,0.361 L192.6918,3.198 L179.9508,3.198 L179.9508,12.122 L191.8658,12.122 L191.8658,14.959 L179.9508,14.959 L179.9508,23.935 L192.8978,23.935 L192.8978,26.772 L176.7518,26.772 Z"></path>
        </g>
        <g id="FasterPaid-Copy" transform="translate(0.000000, 30.000000)" fill-rule="nonzero">
            <polygon id="Path" fill="#FFFFFF" points="18 0 18 4.53113815 5.70422535 4.53113815 5.70422535 12.2834646 18 12.2834646 18 16.8575519 5.70422535 16.8575519 5.70422535 30 0 30 0 0"></polygon>
            <path d="M29.2554585,10 C31.7445415,10 33.6459243,10.5520619 34.959607,11.6561856 C36.2732897,12.7603093 36.930131,14.3010309 36.930131,16.2783505 L36.930131,26.1721649 C36.930131,26.9371134 37.2274381,27.3195876 37.8220524,27.3195876 C38.0709607,27.3195876 38.4201237,27.207732 38.8695415,26.9840206 C39.3189592,26.7603093 39.6957787,26.5041237 40,26.2154639 L40,29.2896907 C38.2161572,30.4298969 36.584425,31 35.1048035,31 C34.1921397,31 33.4903566,30.8412371 32.9994541,30.5237113 C32.5085517,30.2061856 32.1663028,29.643299 31.9727074,28.8350515 C30.0229258,30.2783505 28.06623,31 26.1026201,31 C24.705968,31 23.5063683,30.5092784 22.503821,29.5278351 C21.5012737,28.5463918 21,27.3701031 21,25.9989691 C21,24.2525773 21.4978166,22.8742268 22.4934498,21.8639175 C23.489083,20.8536082 25.231441,19.9731959 27.720524,19.2226804 L31.8482533,17.9670103 L31.8482533,17.0360825 C31.8482533,15.0587629 30.7005095,14.0701031 28.4050218,14.0701031 C27.2296215,14.0701031 26.0611354,14.3515464 24.8995633,14.914433 C23.7379913,15.4773196 22.680131,16.3072165 21.7259825,17.4041237 L21.7259825,12.6195876 C23.8417031,10.8731959 26.3515284,10 29.2554585,10 Z M26.1441048,25.1979381 C26.1441048,25.9340206 26.3688137,26.5257732 26.8182314,26.9731959 C27.2676492,27.4206186 27.8242358,27.6443299 28.4879913,27.6443299 C29.6080786,27.6443299 30.7281659,27.1103093 31.8482533,26.042268 L31.8482533,20.7164948 C30.4239447,21.2216495 29.3073144,21.6979381 28.4983624,22.1453608 C27.6894105,22.5927835 27.0947962,23.0474227 26.7145197,23.5092784 C26.3342431,23.971134 26.1441048,24.5340206 26.1441048,25.1979381 Z" id="Shape" fill="#FFFFFF"></path>
            <path d="M49.696793,10 C50.819242,10 51.8760933,10.1262887 52.8673469,10.378866 C53.8586006,10.6314433 54.9081633,11.0319588 56.016035,11.5804124 L56.016035,15.8453608 C54.9956268,15.1958763 53.9023324,14.6726804 52.7361516,14.2757732 C51.5699708,13.878866 50.5276968,13.6804124 49.6093294,13.6804124 C48.8367347,13.6804124 48.2317784,13.8247423 47.7944606,14.1134021 C47.3571429,14.4020619 47.138484,14.8134021 47.138484,15.3474227 C47.138484,15.6505155 47.3206997,15.9536082 47.6851312,16.256701 C48.0495627,16.5597938 49.048105,17.1154639 50.680758,17.9237113 C53.0131195,19.0927835 54.6494169,20.1716495 55.5896501,21.1603093 C56.5298834,22.1489691 57,23.3360825 57,24.7216495 C57,26.6701031 56.3148688,28.2036082 54.9446064,29.3221649 C53.574344,30.4407216 51.7230321,31 49.3906706,31 C47.9329446,31 46.5736152,30.8412371 45.3126822,30.5237113 C44.0517493,30.2061856 43.0058309,29.8237113 42.1749271,29.3762887 L42.1749271,24.9381443 C44.7988338,26.3814433 47.0072886,27.1030928 48.8002915,27.1030928 C49.7186589,27.1030928 50.4620991,26.9407216 51.0306122,26.6159794 C51.5991254,26.2912371 51.8833819,25.8618557 51.8833819,25.3278351 C51.8833819,25.0103093 51.7813411,24.7216495 51.5772595,24.4618557 C51.3731778,24.2020619 51.0670554,23.9350515 50.6588921,23.6608247 C50.2507289,23.3865979 48.9752187,22.7298969 46.8323615,21.6907216 C45.1851312,20.9113402 43.96793,20.0634021 43.180758,19.1469072 C42.393586,18.2304124 42,17.1443299 42,15.8886598 C42,14.0989691 42.7069971,12.6701031 44.1209913,11.6020619 C45.5349854,10.5340206 47.393586,10 49.696793,10 Z" id="Path" fill="#FFFFFF"></path>
            <path d="M66.6128591,5 L67.0232558,5 L67.0232558,10.1666667 L73.5896033,10.1666667 L73.5896033,14.0416667 L67.0232558,14.0416667 L67.0232558,23.0208333 C67.0232558,23.8958333 67.2831737,24.6041667 67.8030096,25.1458333 C68.3228454,25.6875 69.0341997,25.9583333 69.9370725,25.9583333 C71.1135431,25.9583333 72.4678523,25.5277778 74,24.6666667 L74,28.7708333 C72.1805746,29.5902778 70.4705882,30 68.870041,30 C66.7086183,30 65.0225718,29.4027778 63.8119015,28.2083333 C62.6012312,27.0138889 61.995896,25.3958333 61.995896,23.3541667 L61.995896,14.0416667 L59,14.0416667 L59,13.2083333 L66.6128591,5 Z" id="Path" fill="#FFFFFF"></path>
            <path d="M85.7185104,10 C88.5764878,10 90.837897,10.9525773 92.5027382,12.857732 C94.1675794,14.7628866 95,17.3969072 95,20.7597938 L95,21.5608247 L81.2442497,21.5608247 C81.4523549,23.3649485 82.1009493,24.7541237 83.1900329,25.7283505 C84.2791165,26.7025773 85.7740051,27.1896907 87.6746988,27.1896907 C88.8955823,27.1896907 90.0713764,26.9695876 91.2020811,26.5293814 C92.3327857,26.0891753 93.5016429,25.4216495 94.7086528,24.5268041 L94.7086528,28.4886598 C92.4333698,30.1628866 89.6725082,31 86.4260679,31 C83.3599854,31 80.8557868,30.0402062 78.9134721,28.1206186 C76.9711574,26.2010309 76,23.6463918 76,20.456701 C76,17.3824742 76.8983206,14.871134 78.6949617,12.9226804 C80.4916028,10.9742268 82.8327857,10 85.7185104,10 Z M90.1927711,18.3350515 C90.0540343,16.8628866 89.6239503,15.7118557 88.9025192,14.8819588 C88.181088,14.0520619 87.1891201,13.6371134 85.9266156,13.6371134 C84.6363636,13.6371134 83.5993063,14.0340206 82.8154436,14.8278351 C82.0315809,15.6216495 81.5355969,16.7907216 81.3274918,18.3350515 L90.1927711,18.3350515 Z" id="Shape" fill="#FFFFFF"></path>
            <path d="M110.530364,10 C111.235717,10 111.930274,10.1540616 112.614035,10.4621849 C113.297796,10.7703081 114.093117,11.2885154 115,12.0168067 L113.099865,16.5336134 C111.559604,15.4131653 110.321637,14.8529412 109.385965,14.8529412 C108.565452,14.8529412 107.755735,15.1505602 106.956815,15.7457983 C106.157895,16.3410364 105.517319,17.1288515 105.035088,18.1092437 C104.552857,19.0896359 104.311741,20.070028 104.311741,21.0504202 L104.311741,30 L99,30 L99,10.3781513 L104.311741,10.3781513 L104.311741,15.3781513 L104.398111,15.3781513 C105.362573,13.487395 106.334233,12.1183473 107.31309,11.2710084 C108.291948,10.4236695 109.364372,10 110.530364,10 Z" id="Path" fill="#FFFFFF"></path>
            <path d="M129.559633,0 C132.356779,0 134.62946,0.812455261 136.377676,2.43736578 C138.125892,4.06227631 139,6.15604868 139,8.71868289 C139,11.3099499 138.115189,13.4073014 136.345566,15.0107373 C134.575943,16.6141732 132.24261,17.4158912 129.345566,17.4158912 L123.779817,17.4158912 L123.779817,30 L118,30 L118,0 L129.559633,0 Z M128.125382,12.884753 C129.666667,12.884753 130.869011,12.5304223 131.732416,11.8217609 C132.595821,11.1130995 133.027523,10.0644238 133.027523,8.67573372 C133.027523,5.91267001 131.2579,4.53113815 127.718654,4.53113815 L123.779817,4.53113815 L123.779817,12.884753 L128.125382,12.884753 Z" id="Shape" fill="#009421"></path>
            <path d="M150.255459,10 C152.744541,10 154.645924,10.5520619 155.959607,11.6561856 C157.27329,12.7603093 157.930131,14.3010309 157.930131,16.2783505 L157.930131,26.1721649 C157.930131,26.9371134 158.227438,27.3195876 158.822052,27.3195876 C159.070961,27.3195876 159.420124,27.207732 159.869541,26.9840206 C160.318959,26.7603093 160.695779,26.5041237 161,26.2154639 L161,29.2896907 C159.216157,30.4298969 157.584425,31 156.104803,31 C155.19214,31 154.490357,30.8412371 153.999454,30.5237113 C153.508552,30.2061856 153.166303,29.643299 152.972707,28.8350515 C151.022926,30.2783505 149.06623,31 147.10262,31 C145.705968,31 144.506368,30.5092784 143.503821,29.5278351 C142.501274,28.5463918 142,27.3701031 142,25.9989691 C142,24.2525773 142.497817,22.8742268 143.49345,21.8639175 C144.489083,20.8536082 146.231441,19.9731959 148.720524,19.2226804 L152.848253,17.9670103 L152.848253,17.0360825 C152.848253,15.0587629 151.700509,14.0701031 149.405022,14.0701031 C148.229622,14.0701031 147.061135,14.3515464 145.899563,14.914433 C144.737991,15.4773196 143.680131,16.3072165 142.725983,17.4041237 L142.725983,12.6195876 C144.841703,10.8731959 147.351528,10 150.255459,10 Z M147.144105,25.1979381 C147.144105,25.9340206 147.368814,26.5257732 147.818231,26.9731959 C148.267649,27.4206186 148.824236,27.6443299 149.487991,27.6443299 C150.608079,27.6443299 151.728166,27.1103093 152.848253,26.042268 L152.848253,20.7164948 C151.423945,21.2216495 150.307314,21.6979381 149.498362,22.1453608 C148.68941,22.5927835 148.094796,23.0474227 147.71452,23.5092784 C147.334243,23.971134 147.144105,24.5340206 147.144105,25.1979381 Z" id="Shape" fill="#009421"></path>
            <path d="M167,1 C167.820144,1 168.52518,1.29014153 169.115108,1.8704246 C169.705036,2.45070766 170,3.14421669 170,3.95095168 C170,4.72938019 169.708633,5.4193509 169.125899,6.02086384 C168.543165,6.62237677 167.834532,6.92313324 167,6.92313324 C166.194245,6.92313324 165.492806,6.62237677 164.895683,6.02086384 C164.298561,5.4193509 164,4.72938019 164,3.95095168 C164,3.13006345 164.302158,2.43301611 164.906475,1.85980966 C165.510791,1.28660322 166.208633,1 167,1 Z M169.654676,10.1713031 L169.654676,30 L164.345324,30 L164.345324,10.1713031 L169.654676,10.1713031 Z" id="Shape" fill="#009421"></path>
            <path d="M187.702703,10.3937008 L187.702703,0 L193,0 L193,30 L183.659459,30 C180.430631,30 177.846847,29.0765927 175.908108,27.2297781 C173.969369,25.3829635 173,22.8632785 173,19.670723 C173,17.7809592 173.45045,16.0629921 174.351351,14.5168218 C175.252252,12.9706514 176.491892,11.7573372 178.07027,10.876879 C179.648649,9.9964209 181.353153,9.55619184 183.183784,9.55619184 C184.596396,9.55619184 186.102703,9.83536149 187.702703,10.3937008 Z M184.913514,25.9627774 L187.702703,25.9627774 L187.702703,14.3450251 C186.607207,13.7866858 185.468468,13.5075161 184.286486,13.5075161 C182.513514,13.5075161 181.097297,14.0586972 180.037838,15.1610594 C178.978378,16.2634216 178.448649,17.7093772 178.448649,19.4989263 C178.448649,23.8081603 180.603604,25.9627774 184.913514,25.9627774 Z" id="Shape" fill="#009421"></path>
        </g>
    </g>
</svg>